<?xml version="1.0" standalone="no"?>
<!DOCTYPE svg PUBLIC "-//W3C//DTD SVG 20010904//EN"
 "http://www.w3.org/TR/2001/REC-SVG-20010904/DTD/svg10.dtd">
<svg version="1.0" xmlns="http://www.w3.org/2000/svg"
 width="1024.000000pt" height="320.000000pt" viewBox="0 0 1024.000000 320.000000"
 preserveAspectRatio="xMidYMid meet" >

<g transform="translate(0.000000,320.000000) scale(0.100000,-0.100000)"
fill="#000000" stroke="none">
<path d="M1415 3188 c-155 -17 -313 -131 -410 -294 -65 -110 -573 -1129 -734
-1474 -242 -516 -264 -576 -263 -740 1 -115 19 -187 74 -300 74 -152 228 -284
398 -340 93 -30 225 -37 329 -16 207 42 366 136 578 339 l102 98 17 -26 c26
-40 208 -201 289 -255 267 -180 531 -217 767 -107 146 68 254 173 323 312 46
92 65 170 72 282 7 108 -6 185 -48 291 -99 248 -817 1720 -938 1920 -66 110
-114 166 -188 219 -109 78 -226 107 -368 91z m198 -218 c69 -26 130 -79 180
-155 49 -75 539 -1058 709 -1420 264 -566 274 -593 265 -735 -3 -47 -13 -110
-23 -140 -41 -123 -157 -243 -281 -290 -73 -28 -200 -37 -285 -21 -82 16 -225
85 -313 152 -89 68 -245 218 -245 236 0 7 22 41 49 76 172 220 306 489 340
681 62 347 -137 626 -470 661 -208 22 -438 -95 -531 -271 -134 -251 -48 -600
253 -1019 49 -68 89 -128 89 -133 0 -5 -44 -52 -97 -104 -212 -204 -377 -289
-568 -289 -149 0 -262 47 -358 150 -113 121 -152 289 -108 463 36 142 576
1268 899 1878 91 171 155 245 242 278 74 28 180 29 253 2z m25 -1170 c69 -30
144 -112 168 -182 23 -68 23 -201 0 -287 -38 -141 -136 -328 -262 -498 l-57
-77 -33 38 c-98 113 -225 337 -275 486 -28 83 -32 109 -33 200 0 86 3 113 21
151 39 86 117 156 206 185 64 21 200 13 265 -16z"/>
<path d="M5110 2584 c-82 -36 -124 -106 -118 -199 4 -71 30 -117 84 -154 140
-96 328 18 312 189 -13 128 -160 215 -278 164z"/>
<path d="M6390 1709 l0 -891 135 4 c149 3 155 6 155 66 0 17 3 32 6 32 4 0 22
-14 42 -31 113 -100 299 -123 478 -59 173 60 318 211 375 390 29 89 36 251 15
349 -49 231 -235 418 -463 466 -165 35 -318 2 -416 -89 -15 -14 -30 -26 -33
-26 -2 0 -4 153 -4 340 l0 340 -145 0 -145 0 0 -891z m744 22 c118 -58 176
-159 176 -306 0 -146 -58 -248 -173 -305 -151 -74 -334 -49 -428 57 l-29 34 0
214 0 214 36 37 c20 20 64 49 98 66 57 27 68 29 157 26 84 -3 104 -7 163 -37z"/>
<path d="M9010 1710 l0 -890 126 0 c69 0 134 5 145 10 14 8 19 21 19 50 0 22
3 40 6 40 4 0 22 -14 42 -31 196 -173 578 -100 759 144 88 118 125 235 124
391 -1 185 -56 322 -180 447 -205 204 -522 239 -706 78 l-35 -31 0 341 0 341
-150 0 -150 0 0 -890z m696 43 c100 -34 157 -84 201 -178 23 -52 27 -73 27
-150 0 -77 -4 -99 -28 -152 -50 -109 -141 -174 -270 -192 -114 -16 -216 13
-290 82 l-36 34 0 226 0 225 46 41 c25 22 69 49 98 60 65 25 183 27 252 4z"/>
<path d="M4090 2035 c-216 -49 -396 -224 -456 -445 -28 -103 -23 -264 10 -365
65 -199 193 -332 386 -398 73 -26 99 -30 190 -30 124 0 190 20 270 84 l50 39
0 -30 c0 -17 9 -39 20 -50 18 -18 33 -20 150 -20 l130 0 0 600 0 600 -134 0
c-128 0 -136 -1 -150 -22 -9 -12 -16 -35 -16 -51 l0 -29 -45 40 c-24 21 -70
49 -102 62 -75 29 -211 36 -303 15z m321 -292 c26 -11 65 -38 88 -58 l41 -37
0 -228 0 -228 -46 -41 c-51 -45 -147 -81 -215 -81 -187 0 -330 115 -358 288
-22 140 25 270 126 342 98 71 259 90 364 43z"/>
<path d="M6009 2027 c-37 -13 -92 -42 -123 -65 l-56 -43 0 39 c0 21 -5 43 -12
50 -8 8 -55 12 -145 12 l-133 0 0 -600 0 -600 150 0 150 0 0 424 0 424 33 28
c79 67 210 98 325 76 l52 -9 0 137 0 137 -37 7 c-70 11 -138 6 -204 -17z"/>
<path d="M8253 2039 c-62 -12 -130 -44 -180 -85 l-43 -35 0 35 c0 59 -15 66
-156 66 l-124 0 0 -600 0 -600 150 0 150 0 0 424 0 424 31 27 c59 49 129 78
204 83 119 7 185 -22 228 -101 22 -41 22 -50 25 -449 l3 -408 150 0 149 0 0
398 c0 424 -6 492 -47 584 -30 68 -115 154 -191 192 -98 50 -237 68 -349 45z"/>
<path d="M5040 1420 l0 -600 150 0 150 0 0 600 0 600 -150 0 -150 0 0 -600z"/>
</g>
</svg>
