<?xml version="1.0" standalone="no"?>
<!DOCTYPE svg PUBLIC "-//W3C//DTD SVG 20010904//EN"
 "http://www.w3.org/TR/2001/REC-SVG-20010904/DTD/svg10.dtd">
<svg version="1.0" xmlns="http://www.w3.org/2000/svg"
 width="256.000000pt" height="171.000000pt" viewBox="0 0 256.000000 171.000000"
 preserveAspectRatio="xMidYMid meet">

<g transform="translate(0.000000,171.000000) scale(0.100000,-0.100000)"
fill="#000000" stroke="none">
<path d="M686 1083 c-22 -12 -46 -51 -107 -178 -89 -183 -94 -211 -50 -256 46
-45 87 -40 172 22 12 9 24 5 59 -20 55 -40 110 -42 145 -6 14 13 25 32 24 42
0 15 -2 14 -9 -3 -11 -28 -48 -54 -78 -54 -29 0 -71 21 -95 48 -18 20 -18 21
8 63 39 61 44 113 15 144 -13 14 -35 25 -50 25 -35 0 -70 -27 -69 -53 0 -15 2
-17 6 -7 11 28 36 50 60 50 29 0 63 -33 63 -63 0 -32 -42 -111 -60 -115 -16
-3 -47 41 -60 86 -8 25 -8 25 -9 4 -1 -12 10 -40 24 -62 14 -22 25 -46 25 -54
0 -23 -70 -66 -108 -66 -43 0 -82 38 -82 79 0 35 157 350 182 365 11 7 27 7
45 1 23 -8 40 -33 88 -130 34 -66 73 -147 88 -180 15 -33 24 -49 21 -35 -3 14
-38 91 -76 172 -88 183 -115 211 -172 181z"/>
<path d="M1277 994 c-14 -15 -6 -34 14 -34 14 0 19 5 17 17 -3 18 -20 27 -31
17z"/>
<path d="M1480 870 c0 -100 3 -130 13 -130 7 0 18 5 24 11 8 8 13 8 17 0 4 -6
21 -11 37 -11 71 0 107 100 54 150 -21 19 -31 22 -70 17 l-45 -7 0 50 c0 38
-4 50 -15 50 -13 0 -15 -21 -15 -130z m123 8 c9 -7 19 -25 22 -40 5 -21 1 -33
-19 -52 -46 -47 -96 -25 -96 41 0 21 5 44 12 51 16 16 60 15 81 0z"/>
<path d="M1890 870 c0 -117 7 -150 24 -121 4 5 19 4 36 -2 25 -9 36 -9 58 4
55 30 64 97 21 140 -16 16 -31 20 -67 17 l-47 -3 -3 48 c-2 26 -7 47 -13 47
-5 0 -9 -55 -9 -130z m122 3 c54 -49 -16 -139 -77 -99 -29 19 -34 75 -9 100
20 21 63 20 86 -1z"/>
<path d="M1081 887 c-32 -35 -29 -99 5 -126 29 -22 79 -28 90 -10 4 8 9 8 17
0 21 -21 26 -10 29 72 l3 83 -61 2 c-52 1 -64 -2 -83 -21z m107 -9 c17 -17 15
-78 -5 -100 -21 -23 -45 -23 -74 0 -28 24 -31 79 -4 98 23 17 67 18 83 2z"/>
<path d="M1280 825 c0 -50 4 -85 10 -85 6 0 10 35 10 85 0 50 -4 85 -10 85 -6
0 -10 -35 -10 -85z"/>
<path d="M1350 823 c0 -67 3 -83 15 -83 12 0 15 14 15 63 0 65 11 87 42 87 10
0 18 4 18 9 0 5 -20 9 -45 9 l-45 -1 0 -84z"/>
<path d="M1690 823 c0 -67 3 -83 15 -83 12 0 15 14 15 63 0 70 10 87 52 87 36
0 48 -24 48 -94 0 -31 5 -56 10 -56 16 0 13 145 -3 159 -8 6 -42 10 -75 9
l-62 -2 0 -83z"/>
</g>
</svg>
