<?xml version="1.0" standalone="no"?>
<!DOCTYPE svg PUBLIC "-//W3C//DTD SVG 20010904//EN"
 "http://www.w3.org/TR/2001/REC-SVG-20010904/DTD/svg10.dtd">
<svg version="1.0" xmlns="http://www.w3.org/2000/svg"
 width="512.000000pt" height="512.000000pt" viewBox="0 0 512.000000 512.000000"
 preserveAspectRatio="xMidYMid meet">

<g transform="translate(0.000000,512.000000) scale(0.100000,-0.100000)"
fill="#000000" stroke="none">
<path d="M2056 5099 c-16 -13 -26 -30 -26 -47 0 -15 -14 -47 -30 -71 -30 -44
-50 -99 -50 -136 0 -37 20 -92 50 -136 16 -24 30 -52 30 -62 0 -11 -16 -44
-35 -75 -46 -75 -55 -137 -25 -174 40 -51 130 -25 130 37 0 12 14 43 31 70 61
96 61 185 -1 276 -37 55 -37 73 0 128 54 79 63 149 25 186 -30 30 -64 32 -99
4z"/>
<path d="M2553 5105 c-13 -9 -25 -32 -29 -52 -4 -20 -21 -59 -38 -86 -24 -39
-31 -63 -34 -116 -3 -61 -1 -70 32 -125 41 -66 45 -102 16 -139 -52 -65 -66
-161 -30 -197 42 -42 114 -15 126 47 4 20 21 56 38 81 28 40 31 51 31 121 0
70 -3 83 -32 130 -18 29 -33 63 -33 75 0 13 16 50 35 82 46 76 49 142 9 173
-32 25 -61 27 -91 6z"/>
<path d="M3046 5099 c-16 -13 -26 -30 -26 -47 0 -15 -14 -47 -30 -71 -62 -91
-62 -180 -1 -276 17 -27 31 -55 31 -63 0 -8 -16 -39 -35 -70 -46 -75 -55 -137
-25 -174 40 -52 130 -23 130 41 0 12 13 41 29 65 62 89 64 176 6 267 -19 30
-35 63 -35 74 0 11 14 40 30 64 55 81 62 164 17 196 -30 21 -59 19 -91 -6z"/>
<path d="M606 4199 c-69 -11 -124 -53 -159 -119 -25 -48 -28 -63 -25 -122 4
-81 38 -137 110 -181 39 -24 61 -30 132 -34 85 -6 86 -6 86 -32 0 -14 3 -50 6
-78 l7 -53 -318 0 -318 0 -43 -25 c-111 -65 -111 -229 0 -341 82 -81 98 -84
478 -84 l318 0 54 -109 c168 -340 432 -616 758 -793 54 -29 98 -57 98 -63 0
-5 -147 -430 -327 -945 -369 -1051 -357 -1009 -298 -1106 19 -30 49 -60 79
-79 95 -58 226 -34 297 55 20 25 74 166 183 477 85 243 157 447 161 453 9 14
1341 14 1350 0 4 -6 31 -80 60 -164 l54 -154 -35 -69 c-90 -176 -61 -367 75
-504 214 -213 564 -149 693 128 65 138 46 307 -47 432 -50 66 -141 132 -208
151 l-42 11 -134 387 c-74 213 -140 400 -148 415 -8 15 -25 32 -38 37 -43 16
-104 -19 -105 -60 0 -9 58 -183 130 -388 72 -205 130 -377 130 -382 0 -6 -10
-10 -22 -10 -13 0 -46 -11 -74 -24 l-51 -24 -217 622 c-119 341 -216 626 -216
632 0 8 120 54 142 54 4 0 16 -30 29 -67 54 -164 79 -220 105 -232 47 -21 104
12 104 60 0 15 -20 85 -45 156 -25 70 -45 132 -45 138 0 6 26 23 58 39 128 63
301 187 425 305 150 144 271 309 371 509 l56 112 318 0 c380 0 396 3 478 84
55 56 84 122 84 195 0 55 -36 118 -84 146 l-43 25 -318 0 -318 0 7 53 c3 28 6
64 6 78 0 26 1 26 86 32 71 4 93 10 132 34 72 44 106 100 110 181 3 59 0 74
-25 122 -37 70 -89 107 -168 120 -86 14 -3142 13 -3183 -1 -41 -14 -59 -57
-42 -99 7 -16 13 -31 14 -32 0 -2 722 -5 1603 -8 l1601 -5 26 -24 c42 -39 34
-101 -15 -126 -42 -22 -3856 -22 -3898 0 -49 25 -57 87 -15 126 25 24 28 24
242 27 119 1 227 4 238 7 12 3 27 18 34 35 17 42 -1 85 -42 99 -36 13 -388 13
-462 0z m3610 -531 c-96 -995 -1035 -1686 -2005 -1477 -704 152 -1241 757
-1306 1472 l-7 77 1662 0 1663 0 -7 -72z m-3420 -265 c3 -16 12 -49 20 -75
l13 -48 -285 0 c-317 0 -338 4 -374 62 -20 33 -26 69 -13 81 3 4 147 7 319 7
l314 0 6 -27z m4171 12 c9 -25 -19 -86 -50 -109 -27 -20 -41 -21 -327 -24
l-299 -3 13 48 c8 26 17 60 20 76 l6 27 316 0 c274 0 315 -2 321 -15z m-2956
-1326 c38 -12 69 -27 69 -33 0 -20 -640 -1849 -655 -1872 -31 -48 -113 -37
-136 17 -11 28 10 93 304 937 174 499 322 922 328 940 6 17 13 32 16 32 3 0
36 -9 74 -21z m422 -80 c119 -11 290 -4 417 17 l35 6 144 -414 c79 -227 146
-419 149 -425 3 -10 -125 -13 -618 -13 -493 0 -621 3 -618 13 3 6 70 198 149
425 l144 414 35 -6 c19 -3 92 -11 163 -17z m1382 -1327 c47 -24 106 -83 130
-132 27 -52 31 -147 10 -211 -26 -77 -103 -152 -180 -175 -134 -38 -263 16
-330 138 -25 45 -29 64 -29 128 -1 62 4 84 26 126 32 61 94 117 152 138 57 22
169 15 221 -12z"/>
<path d="M3663 500 c-44 -18 -57 -86 -23 -120 26 -26 81 -26 105 0 51 56 -12
148 -82 120z"/>
</g>
</svg>
