<?xml version="1.0" encoding="UTF-8"?>
<!DOCTYPE svg PUBLIC "-//W3C//DTD SVG 1.1//EN" "http://www.w3.org/Graphics/SVG/1.1/DTD/svg11.dtd">
<!-- Creator: CorelDRAW -->
<svg xmlns="http://www.w3.org/2000/svg" xml:space="preserve" width="2048px" height="2048px" style="shape-rendering:geometricPrecision; text-rendering:geometricPrecision; image-rendering:optimizeQuality; fill-rule:evenodd; clip-rule:evenodd"
viewBox="0 0 2048 2048"
 xmlns:xlink="http://www.w3.org/1999/xlink">
 <defs>
  <style type="text/css">
   <![CDATA[
    .fil1 {fill:none}
    .fil0 {fill:#212121;fill-rule:nonzero}
   ]]>
  </style>
 </defs>
 <g id="Layer_x0020_1">
  <metadata id="CorelCorpID_0Corel-Layer"/>
  <g id="_442647552">
   <path id="_442647384" class="fil0" d="M356.275 991.999c-17.6728,0 -32.0008,14.328 -32.0008,32.0008 0,17.6728 14.328,32.0008 32.0008,32.0008l328.753 0c17.6728,0 32.0008,-14.328 32.0008,-32.0008 0,-17.6728 -14.328,-32.0008 -32.0008,-32.0008l-328.753 0zm609.674 0c-17.6728,0 -32.0008,14.328 -32.0008,32.0008 0,17.6728 14.328,32.0008 32.0008,32.0008l725.78 0c17.6728,0 32.0008,-14.328 32.0008,-32.0008 0,-17.6728 -14.328,-32.0008 -32.0008,-32.0008l-725.78 0z"/>
   <path id="_442647840" class="fil0" d="M825.488 851.538c47.6185,0 90.7347,19.3051 121.947,50.5158 31.2107,31.2107 50.5158,74.3268 50.5158,121.947 0,47.6197 -19.3051,90.7359 -50.5158,121.947 -31.2118,31.2107 -74.328,50.5158 -121.947,50.5158 -47.6197,0 -90.7359,-19.3051 -121.947,-50.5158 -31.2107,-31.2107 -50.5158,-74.3268 -50.5158,-121.947 0,-47.6197 19.3051,-90.7359 50.5158,-121.947 31.2107,-31.2107 74.3268,-50.5158 121.947,-50.5158zm76.6961 95.7662c-19.6252,-19.624 -46.7433,-31.7646 -76.6961,-31.7646 -29.954,0 -57.0709,12.1394 -76.6961,31.7646 -19.6252,19.6252 -31.7646,46.7422 -31.7646,76.6961 0,29.954 12.1394,57.0709 31.7646,76.6961 19.6252,19.6252 46.7422,31.7646 76.6961,31.7646 29.9528,0 57.0709,-12.1406 76.6961,-31.7646 19.6252,-19.6252 31.7646,-46.7422 31.7646,-76.6961 0,-29.954 -12.1394,-57.0709 -31.7646,-76.6961z"/>
   <path id="_442647408" class="fil0" d="M1691.73 460.46c17.6728,0 32.0008,-14.328 32.0008,-32.0008 0,-17.6728 -14.328,-32.0008 -32.0008,-32.0008l-328.753 0c-17.6728,0 -32.0008,14.328 -32.0008,32.0008 0,17.6728 14.328,32.0008 32.0008,32.0008l328.753 0zm-609.674 0c17.6728,0 32.0008,-14.328 32.0008,-32.0008 0,-17.6728 -14.328,-32.0008 -32.0008,-32.0008l-725.78 0c-17.6728,0 -32.0008,14.328 -32.0008,32.0008 0,17.6728 14.328,32.0008 32.0008,32.0008l725.78 0z"/>
   <path id="_442647816" class="fil0" d="M1222.51 320c-29.954,0 -57.0709,12.1394 -76.6961,31.7646 -19.6252,19.6252 -31.7646,46.7422 -31.7646,76.6949 0,29.954 12.1394,57.0709 31.7646,76.6961 19.6252,19.6252 46.7422,31.7646 76.6961,31.7646 29.954,0 57.0709,-12.1394 76.6961,-31.7646 19.6252,-19.6252 31.7646,-46.7422 31.7646,-76.6961 0,-29.954 -12.1394,-57.0697 -31.7646,-76.6949 -19.6252,-19.6252 -46.7422,-31.7646 -76.6961,-31.7646zm-121.947 -13.4858c31.2107,-31.2107 74.3268,-50.5158 121.947,-50.5158 47.6197,0 90.7359,19.3051 121.947,50.5158 31.2107,31.2107 50.5158,74.3256 50.5158,121.945 0,47.6197 -19.3051,90.7359 -50.5158,121.947 -31.2107,31.2107 -74.3268,50.5158 -121.947,50.5158 -47.6197,0 -90.7359,-19.3051 -121.947,-50.5158 -31.2107,-31.2107 -50.5158,-74.3268 -50.5158,-121.947 0,-47.6185 19.3051,-90.7347 50.5158,-121.945z"/>
   <path id="_442647912" class="fil0" d="M1691.72 1651.54c17.6728,0 32.0008,-14.328 32.0008,-32.0008 0,-17.6728 -14.328,-32.0008 -32.0008,-32.0008l-328.753 0c-17.6728,0 -32.0008,14.328 -32.0008,32.0008 0,17.6728 14.328,32.0008 32.0008,32.0008l328.753 0zm-609.674 0c17.6728,0 32.0008,-14.328 32.0008,-32.0008 0,-17.6728 -14.328,-32.0008 -32.0008,-32.0008l-725.78 0c-17.6728,0 -32.0008,14.328 -32.0008,32.0008 0,17.6728 14.328,32.0008 32.0008,32.0008l725.78 0z"/>
   <path id="_442647720" class="fil0" d="M1222.51 1792c-47.6197,0 -90.7359,-19.3051 -121.947,-50.5158 -31.2107,-31.2107 -50.5158,-74.3268 -50.5158,-121.945 0,-47.6197 19.3051,-90.7359 50.5158,-121.947 31.2107,-31.2107 74.3268,-50.5158 121.947,-50.5158 47.6197,0 90.7359,19.3051 121.947,50.5158 31.2107,31.2107 50.5158,74.3268 50.5158,121.947 0,47.6185 -19.3051,90.7347 -50.5158,121.945 -31.2107,31.2107 -74.3268,50.5158 -121.947,50.5158zm-76.6961 -95.7662c19.6252,19.6252 46.7422,31.7646 76.6961,31.7646 29.954,0 57.0709,-12.1394 76.6961,-31.7646 19.6252,-19.6252 31.7646,-46.7422 31.7646,-76.6949 0,-29.954 -12.1394,-57.0709 -31.7646,-76.6961 -19.6252,-19.6252 -46.7422,-31.7646 -76.6961,-31.7646 -29.954,0 -57.0709,12.1394 -76.6961,31.7646 -19.6252,19.6252 -31.7646,46.7422 -31.7646,76.6961 0,29.9528 12.1394,57.0697 31.7646,76.6949z"/>
  </g>
 </g>
 <rect class="fil1" width="2048" height="2048"/>
</svg>
