<?xml version="1.0" standalone="no"?>
<!DOCTYPE svg PUBLIC "-//W3C//DTD SVG 20010904//EN"
 "http://www.w3.org/TR/2001/REC-SVG-20010904/DTD/svg10.dtd">
<svg version="1.0" xmlns="http://www.w3.org/2000/svg"
 width="512.000000pt" height="512.000000pt" viewBox="0 0 512.000000 512.000000"
 preserveAspectRatio="xMidYMid meet">

<g transform="translate(0.000000,512.000000) scale(0.100000,-0.100000)"
fill="#000000" stroke="none">
<path d="M25 5095 l-25 -24 0 -271 0 -271 49 -72 c27 -40 108 -153 180 -251
l131 -180 0 -1687 0 -1687 -110 -4 c-89 -2 -113 -6 -127 -21 -16 -16 -18 -44
-21 -280 -2 -144 0 -272 3 -284 3 -12 15 -32 27 -43 21 -20 33 -20 684 -20
364 0 670 3 679 6 31 12 45 59 45 154 l0 90 1019 0 1019 0 4 -106 c3 -97 5
-107 27 -125 22 -18 48 -19 682 -19 470 0 665 3 683 11 14 7 30 25 36 42 6 18
10 129 10 272 0 143 -4 254 -10 272 -15 42 -47 53 -155 53 l-95 0 0 1688 0
1689 113 154 c62 85 143 196 180 248 l67 93 0 274 0 275 -25 24 -24 25 -2511
0 -2511 0 -24 -25z m4935 -305 l0 -170 -2400 0 -2400 0 0 170 0 170 2400 0
2400 0 0 -170z m-148 -427 c-43 -60 -98 -136 -123 -170 l-44 -62 -2085 0
-2085 0 -122 169 -122 170 2330 0 2329 0 -78 -107z m-212 -2053 l0 -1660 -310
0 -309 0 -4 758 c-3 729 -4 760 -24 847 -135 571 -549 981 -1113 1102 -67 14
-129 18 -290 18 -190 -1 -213 -3 -314 -28 -545 -137 -932 -530 -1069 -1086
-20 -83 -21 -113 -24 -848 l-4 -763 -309 0 -310 0 0 1660 0 1660 2040 0 2040
0 0 -1660z m-1770 891 c249 -57 448 -168 625 -345 185 -187 293 -388 351 -656
14 -63 18 -166 21 -652 l4 -578 -270 0 -271 0 44 68 c88 136 121 249 120 412
-1 332 -167 680 -440 921 -96 84 -182 139 -220 139 -43 0 -63 -26 -85 -117
-38 -147 -139 -323 -246 -425 l-38 -37 -85 75 c-92 82 -126 104 -162 104 -45
0 -65 -26 -98 -130 -42 -130 -89 -202 -214 -325 -85 -83 -110 -114 -143 -182
-80 -159 -93 -314 -37 -431 16 -31 30 -60 32 -64 2 -5 -94 -8 -213 -8 l-217 0
5 573 c5 618 6 639 63 809 129 395 436 697 830 821 44 14 113 30 154 37 41 6
82 13 90 15 44 11 322 -6 400 -24z m159 -1017 c98 -107 186 -249 244 -392 93
-229 94 -474 1 -628 l-29 -49 -6 100 c-11 188 -97 365 -246 506 -62 60 -99 82
-149 93 -45 10 -78 -23 -99 -99 -24 -87 -57 -139 -155 -240 -113 -118 -157
-202 -169 -330 l-6 -60 -32 46 c-50 72 -66 135 -61 237 9 168 66 271 250 453
143 143 229 263 279 394 17 44 33 83 36 88 7 11 74 -45 142 -119z m-715 -323
l38 -39 -48 -58 c-54 -67 -107 -174 -123 -252 -16 -76 -14 -224 5 -295 17 -67
51 -139 96 -204 l29 -43 -159 0 c-158 0 -159 0 -194 28 -79 60 -127 175 -112
261 20 110 67 183 222 345 96 101 119 132 155 207 23 49 44 88 47 89 3 0 23
-18 44 -39z m622 -303 c26 -29 67 -93 90 -143 78 -161 82 -304 10 -398 l-32
-42 -176 -3 -176 -2 -27 32 c-94 111 -72 199 95 383 75 83 150 188 150 212 0
24 18 14 66 -39z m922 -825 l3 -83 -100 0 c-96 0 -100 -1 -120 -26 -18 -23
-21 -41 -21 -125 l0 -99 -1020 0 -1020 0 0 100 c0 94 -2 103 -25 125 -22 23
-31 25 -125 25 l-100 0 0 78 c0 43 3 82 7 85 3 4 572 6 1262 5 l1256 -3 3 -82z
m-2430 -405 l2 -168 -565 0 -565 0 0 170 0 170 563 -2 562 -3 3 -167z m3472 2
l0 -170 -565 0 -565 0 0 163 c0 90 3 167 7 170 3 4 258 7 565 7 l558 0 0 -170z"/>
</g>
</svg>
