<?xml version="1.0" standalone="no"?>
<!DOCTYPE svg PUBLIC "-//W3C//DTD SVG 20010904//EN"
 "http://www.w3.org/TR/2001/REC-SVG-20010904/DTD/svg10.dtd">
<svg version="1.0" xmlns="http://www.w3.org/2000/svg"
 width="512.000000pt" height="512.000000pt" viewBox="0 0 512.000000 512.000000"
 preserveAspectRatio="xMidYMid meet">

<g transform="translate(0.000000,512.000000) scale(0.100000,-0.100000)"
fill="#000000" stroke="none">
<path d="M2255 5010 l-110 -110 133 -133 132 -132 0 -240 0 -240 -173 173
c-95 94 -177 172 -182 172 -6 0 -57 -47 -115 -105 l-105 -105 288 -288 287
-287 0 -185 0 -185 -226 -113 -226 -113 -159 102 c-88 56 -162 105 -165 110
-3 5 -43 180 -88 390 -46 209 -86 382 -88 385 -3 2 -71 -10 -152 -28 -118 -26
-145 -35 -142 -47 18 -66 98 -453 94 -457 -3 -2 -94 53 -203 123 l-198 128
-38 174 c-21 96 -41 176 -43 179 -5 4 -285 -54 -292 -61 -2 -2 9 -62 25 -133
15 -71 27 -132 25 -135 -2 -3 -62 -19 -134 -34 -73 -16 -130 -34 -130 -40 0
-20 58 -276 63 -282 4 -3 82 11 174 31 92 20 174 36 181 36 12 0 413 -252 408
-257 -1 -1 -107 -25 -236 -53 -129 -28 -236 -53 -239 -55 -4 -5 56 -285 63
-292 2 -3 170 32 373 76 202 44 378 82 391 83 14 2 79 -32 182 -97 l159 -100
0 -305 0 -305 -161 -103 -161 -104 -381 81 c-209 45 -387 81 -393 81 -7 0 -15
-10 -18 -22 -14 -64 -55 -261 -55 -267 0 -4 106 -29 235 -56 129 -27 235 -52
235 -56 0 -4 -89 -64 -197 -134 l-197 -127 -170 36 c-94 20 -176 36 -182 36
-6 0 -23 -57 -38 -128 -15 -70 -29 -136 -32 -147 -5 -19 6 -23 130 -49 75 -16
136 -33 136 -39 0 -5 -12 -66 -26 -134 -14 -68 -24 -126 -22 -129 6 -5 290
-66 293 -62 1 2 19 82 40 178 20 96 40 178 43 181 15 14 395 260 397 257 2 -2
-19 -108 -46 -237 -36 -167 -47 -236 -39 -241 16 -10 279 -64 285 -59 4 4 165
754 165 769 0 5 74 56 164 114 l164 107 226 -113 226 -113 0 -185 0 -185 -287
-287 -288 -288 105 -105 c58 -58 109 -105 115 -105 5 0 87 78 182 172 l173
173 0 -240 0 -240 -132 -132 -133 -133 110 -110 110 -110 97 97 98 98 98 -98
97 -97 110 110 110 110 -133 133 -132 132 0 240 0 240 173 -173 c95 -94 177
-172 182 -172 6 0 57 47 115 105 l105 105 -288 288 -287 287 0 185 0 185 226
113 226 113 36 -23 c20 -12 94 -59 163 -104 l127 -82 21 -94 c11 -51 50 -225
85 -386 35 -161 66 -295 69 -298 2 -3 70 10 151 27 121 26 146 35 142 48 -18
67 -98 453 -94 457 3 3 95 -53 203 -123 l198 -128 38 -174 c21 -96 41 -176 44
-179 5 -5 284 54 292 61 1 2 -10 62 -26 133 -15 71 -27 132 -25 135 2 3 62 19
134 34 76 16 130 33 130 39 0 20 -58 277 -63 283 -3 3 -80 -11 -171 -31 -91
-20 -172 -36 -180 -36 -11 0 -383 229 -414 255 -1 1 104 25 235 54 130 28 239
53 241 56 5 4 -55 285 -62 292 -2 2 -179 -34 -392 -81 l-389 -85 -160 102
-160 103 -2 304 -2 305 161 104 161 103 389 -83 c213 -45 391 -80 394 -76 5 5
64 269 64 287 0 4 -106 29 -235 56 -129 27 -235 52 -235 55 0 3 89 64 197 134
l197 128 171 -37 c93 -20 175 -36 181 -36 6 0 23 57 38 128 15 70 29 137 32
148 5 19 -4 22 -130 49 -75 15 -136 32 -136 38 0 5 12 66 26 134 14 68 24 126
21 129 -6 6 -289 66 -292 62 -1 -2 -19 -82 -40 -178 -20 -96 -40 -178 -43
-182 -13 -13 -395 -259 -398 -256 -1 2 20 108 47 237 37 172 47 236 39 241
-17 10 -279 64 -285 59 -2 -3 -41 -179 -87 -392 l-82 -388 -162 -105 -162
-105 -226 113 -226 113 0 185 0 185 287 287 288 288 -105 105 c-58 58 -109
105 -115 105 -5 0 -87 -78 -182 -172 l-173 -173 0 240 0 240 132 132 133 133
-110 110 -110 110 -97 -97 -98 -98 -98 98 -97 97 -110 -110z m535 -2045 l230
-115 0 -290 0 -290 -230 -115 -230 -115 -230 115 -230 115 0 290 0 290 228
114 c125 63 228 115 230 115 1 1 106 -51 232 -114z"/>
</g>
</svg>
