<?xml version="1.0" standalone="no"?>
<!DOCTYPE svg PUBLIC "-//W3C//DTD SVG 20010904//EN"
 "http://www.w3.org/TR/2001/REC-SVG-20010904/DTD/svg10.dtd">
<svg version="1.0" xmlns="http://www.w3.org/2000/svg"
 width="512.000000pt" height="512.000000pt" viewBox="0 0 512.000000 512.000000"
 preserveAspectRatio="xMidYMid meet">

<g transform="translate(0.000000,512.000000) scale(0.100000,-0.100000)"
fill="#000000" stroke="none">
<path d="M521 4304 c-169 -45 -301 -180 -346 -351 -23 -87 -22 -2220 0 -2308
45 -172 179 -305 352 -350 43 -11 116 -15 292 -15 l235 0 -121 -122 c-130
-132 -143 -156 -128 -235 9 -49 69 -109 118 -118 87 -17 94 -12 347 241 l236
234 1054 0 1054 0 236 -234 c253 -253 260 -258 347 -241 49 9 109 69 118 118
15 79 2 103 -128 235 l-121 122 235 0 c254 0 304 7 401 56 71 36 159 123 197
193 64 120 61 66 61 1271 0 952 -2 1104 -15 1155 -45 172 -179 305 -352 350
-85 22 -3989 21 -4072 -1z m4045 -330 c15 -11 37 -33 48 -48 21 -27 21 -32 21
-1126 0 -1094 0 -1099 -21 -1126 -11 -15 -33 -37 -48 -48 l-27 -21 -1979 0
-1979 0 -27 21 c-15 11 -37 33 -48 48 -21 27 -21 35 -24 1099 -1 590 0 1086 3
1104 7 40 49 91 90 109 25 11 377 13 1997 11 l1967 -2 27 -21z"/>
</g>
</svg>
