<?xml version="1.0" standalone="no"?>
<!DOCTYPE svg PUBLIC "-//W3C//DTD SVG 20010904//EN"
 "http://www.w3.org/TR/2001/REC-SVG-20010904/DTD/svg10.dtd">
<svg version="1.0" xmlns="http://www.w3.org/2000/svg"
 width="512.000000pt" height="512.000000pt" viewBox="0 0 512.000000 512.000000"
 preserveAspectRatio="xMidYMid meet">

<g transform="translate(0.000000,512.000000) scale(0.100000,-0.100000)"
fill="#000000" stroke="none">
<path d="M2459 4740 c-277 -44 -501 -247 -570 -518 -18 -72 -19 -119 -19
-1085 l0 -1009 -55 -60 c-108 -117 -179 -244 -231 -414 -26 -82 -28 -102 -28
-264 0 -148 3 -187 21 -252 52 -187 136 -332 268 -464 93 -93 175 -151 289
-205 598 -280 1298 83 1422 738 24 128 15 327 -20 446 -49 165 -123 299 -229
413 l-57 62 0 1009 c0 966 -1 1013 -19 1085 -62 243 -259 442 -496 502 -78 20
-205 27 -276 16z m290 -133 c180 -63 313 -203 377 -397 18 -52 19 -119 22
-1095 l3 -1039 62 -66 c35 -36 77 -85 94 -110 80 -118 137 -276 151 -419 39
-382 -158 -737 -501 -906 -144 -71 -224 -88 -402 -88 -134 0 -160 3 -239 27
-321 97 -560 344 -638 661 -30 123 -30 314 1 430 41 154 133 315 240 420 l51
49 0 108 0 108 90 0 c77 0 93 3 110 20 24 24 25 38 4 68 -14 20 -23 22 -110
22 l-95 0 3 53 3 52 43 6 c87 11 84 94 -3 101 l-40 3 -3 53 -3 52 95 0 c87 0
96 2 110 22 21 30 20 44 -4 68 -17 17 -33 20 -110 20 l-90 0 0 50 c0 50 0 50
33 50 41 0 77 25 77 52 0 35 -29 58 -72 58 l-39 0 3 53 3 52 93 3 c85 3 93 5
108 27 15 23 15 27 0 50 -15 22 -23 24 -108 27 l-93 3 -3 53 -3 52 37 0 c21 0
46 7 56 17 42 37 6 93 -59 93 -33 0 -33 0 -33 50 l0 50 90 0 c77 0 93 3 110
20 24 24 25 38 4 68 -14 20 -23 22 -110 22 l-95 0 3 53 3 52 43 6 c87 11 84
94 -3 101 l-40 3 -3 53 -3 52 95 0 c87 0 96 2 110 22 21 30 20 44 -4 68 -17
17 -33 20 -105 20 -82 0 -85 1 -85 23 0 34 28 124 57 182 78 156 226 271 398
311 90 21 224 12 314 -19z"/>
<path d="M2495 4306 c-37 -17 -70 -52 -84 -89 -8 -19 -11 -379 -11 -1148 0
-1058 -1 -1120 -17 -1125 -54 -17 -166 -81 -210 -119 -132 -116 -217 -322
-198 -485 27 -242 184 -438 407 -511 58 -19 94 -24 178 -24 84 0 120 5 178 24
187 61 332 213 388 406 21 74 23 210 5 285 -47 187 -184 344 -359 410 l-47 18
-5 1135 c-5 1127 -5 1136 -26 1163 -11 15 -32 37 -46 47 -34 25 -113 32 -153
13z m103 -108 c9 -9 12 -280 12 -1158 0 -1307 -12 -1164 98 -1199 206 -64 345
-268 330 -486 -13 -184 -135 -350 -305 -415 -81 -32 -213 -38 -299 -15 -229
62 -385 306 -346 537 32 183 167 335 342 384 30 9 61 23 68 32 9 12 12 260 12
1162 0 878 3 1149 12 1158 7 7 24 12 38 12 14 0 31 -5 38 -12z"/>
<path d="M2528 1749 c-26 -15 -23 -64 4 -83 12 -9 39 -16 58 -16 47 0 132 -43
166 -83 36 -42 63 -104 71 -162 8 -61 40 -86 78 -61 20 13 25 25 25 59 0 102
-58 212 -146 280 -77 59 -210 93 -256 66z"/>
<path d="M2205 1427 c-15 -12 -17 -24 -13 -81 13 -162 140 -295 311 -327 72
-13 107 4 107 51 0 34 -16 45 -83 53 -125 17 -215 111 -233 245 -9 68 -44 91
-89 59z"/>
</g>
</svg>
