<?xml version="1.0" standalone="no"?>
<!DOCTYPE svg PUBLIC "-//W3C//DTD SVG 20010904//EN"
 "http://www.w3.org/TR/2001/REC-SVG-20010904/DTD/svg10.dtd">
<svg version="1.0" xmlns="http://www.w3.org/2000/svg"
 width="64.000000pt" height="64.000000pt" viewBox="0 0 64.000000 64.000000"
 preserveAspectRatio="xMidYMid meet">

<g transform="translate(0.000000,64.000000) scale(0.100000,-0.100000)"
fill="#000000" stroke="none">
<path d="M74 626 c-18 -14 -19 -30 -22 -285 -3 -262 -2 -271 18 -288 11 -10
20 -25 20 -35 0 -17 16 -18 228 -18 l227 1 23 35 c21 34 22 43 22 297 0 221
-2 266 -16 285 -15 22 -19 22 -248 22 -185 0 -236 -3 -252 -14z m486 -26 c6
-12 10 -35 8 -53 l-3 -32 -242 -3 -243 -2 0 48 c0 27 3 52 7 55 3 4 109 7 234
7 220 0 229 -1 239 -20z m8 -322 l-3 -213 -242 -3 -243 -2 0 215 0 215 245 0
245 0 -2 -212z m-38 -248 c0 -6 -77 -10 -210 -10 -133 0 -210 4 -210 10 0 6
77 10 210 10 133 0 210 -4 210 -10z"/>
<path d="M100 565 l0 -36 73 3 72 3 0 30 0 30 -72 3 -73 3 0 -36z m120 0 c0
-11 -12 -15 -50 -15 -38 0 -50 4 -50 15 0 11 12 15 50 15 38 0 50 -4 50 -15z"/>
<path d="M283 593 c-18 -7 -16 -38 3 -53 12 -11 18 -10 32 4 25 25 -2 63 -35
49z"/>
<path d="M362 588 c-18 -18 -15 -36 7 -48 15 -7 23 -6 35 6 20 19 20 19 0 38
-19 19 -26 20 -42 4z"/>
<path d="M445 571 c-7 -12 12 -24 25 -16 11 7 4 25 -10 25 -5 0 -11 -4 -15 -9z"/>
<path d="M505 571 c-3 -5 -1 -12 5 -16 12 -7 30 2 30 16 0 12 -27 12 -35 0z"/>
<path d="M255 432 c-102 -48 -135 -161 -72 -252 34 -50 81 -72 148 -68 67 5
111 33 139 88 71 139 -76 297 -215 232z m144 -31 c47 -33 66 -69 66 -124 0
-153 -196 -204 -272 -71 -26 45 -29 81 -9 127 37 86 143 120 215 68z"/>
<path d="M275 405 c-119 -42 -124 -194 -8 -254 52 -27 133 -1 168 53 71 108
-37 243 -160 201z m123 -44 c33 -33 48 -87 31 -107 -13 -16 -76 -18 -111 -5
-13 5 -43 6 -66 1 -35 -6 -42 -5 -44 9 -7 81 37 130 119 131 33 0 48 -6 71
-29z m-9 -142 l34 0 -27 -27 c-37 -37 -112 -39 -150 -3 -36 34 -23 44 48 36
33 -3 76 -6 95 -6z"/>
</g>
</svg>
